<svg xmlns="http://www.w3.org/2000/svg" width="16" height="16" viewBox="0 0 16 16"><defs><style>.a{fill:none;}.b{fill:#fff;}</style></defs><rect class="a" width="16" height="16"/><g transform="translate(2 2)"><path class="b" d="M12.333,8.333V3H5.667V5.667H3V15H8.333V12.333H9.667V15H15V8.333ZM5.667,13.667H4.333V12.333H5.667Zm0-2.667H4.333V9.667H5.667Zm0-2.667H4.333V7H5.667ZM8.333,11H7V9.667H8.333Zm0-2.667H7V7H8.333Zm0-2.667H7V4.333H8.333ZM11,11H9.667V9.667H11Zm0-2.667H9.667V7H11Zm0-2.667H9.667V4.333H11Zm2.667,8H12.333V12.333h1.333Zm0-2.667H12.333V9.667h1.333Z" transform="translate(-3 -3)"/></g></svg>