<svg width="27" height="24" viewBox="0 0 27 24" fill="none" xmlns="http://www.w3.org/2000/svg">
<path fill-rule="evenodd" clip-rule="evenodd" d="M5.56459 11.2926L13.0509 4.29289C13.4685 3.90237 14.1457 3.90237 14.5634 4.29289C14.9811 4.68342 14.9811 5.31658 14.5634 5.70711L8.90254 11H21.2938C21.8844 11 22.3633 11.4477 22.3633 12C22.3633 12.5523 21.8844 13 21.2938 13H8.90254L14.5634 18.2929C14.9811 18.6834 14.9811 19.3166 14.5634 19.7071C14.1457 20.0976 13.4685 20.0976 13.0509 19.7071L5.56476 12.7076L5.56423 12.7071M5.56197 12.705C5.46055 12.6096 5.38394 12.4999 5.33213 12.3828ZM5.56197 11.295C5.35464 11.49 5.25098 11.745 5.25098 12C5.25098 12.1356 5.27984 12.2649 5.33213 12.3828M5.56197 11.295C5.56284 11.2942 5.56371 11.2934 5.56459 11.2926Z" fill="black"/>
<mask id="mask0" mask-type="alpha" maskUnits="userSpaceOnUse" x="5" y="4" width="18" height="16">
<path fill-rule="evenodd" clip-rule="evenodd" d="M5.56459 11.2926L13.0509 4.29289C13.4685 3.90237 14.1457 3.90237 14.5634 4.29289C14.9811 4.68342 14.9811 5.31658 14.5634 5.70711L8.90254 11H21.2938C21.8844 11 22.3633 11.4477 22.3633 12C22.3633 12.5523 21.8844 13 21.2938 13H8.90254L14.5634 18.2929C14.9811 18.6834 14.9811 19.3166 14.5634 19.7071C14.1457 20.0976 13.4685 20.0976 13.0509 19.7071L5.56476 12.7076L5.56423 12.7071M5.56197 12.705C5.46055 12.6096 5.38394 12.4999 5.33213 12.3828ZM5.56197 11.295C5.35464 11.49 5.25098 11.745 5.25098 12C5.25098 12.1356 5.27984 12.2649 5.33213 12.3828M5.56197 11.295C5.56284 11.2942 5.56371 11.2934 5.56459 11.2926Z" fill="white"/>
</mask>
<g mask="url(#mask0)">
<rect x="0.973145" width="25.6684" height="24" fill="#6E6B7B"/>
</g>
</svg>
