<svg xmlns="http://www.w3.org/2000/svg" width="53" height="52.647" viewBox="0 0 53 52.647"><defs><style>.a{fill:#ffa134;}.b{fill:#eb9127;}.c{fill:#076535;}.d{fill:#004d26;}.e{fill:#87bd40;}.f{fill:#7bb233;}.g{fill:#8ec742;}.h{fill:#ffb157;}.i{fill:#9fd559;}</style></defs><g transform="translate(0 -1.707)"><path class="a" d="M15.449,171.927H6.772a4.538,4.538,0,1,0,0,9.077h8.676a4.538,4.538,0,1,0,0-9.077Z" transform="translate(-2.003 -152.6)"/><path class="b" d="M15.449,84.243H6.772a4.538,4.538,0,1,0,0,9.077h8.676a4.538,4.538,0,1,0,0-9.077Z" transform="translate(-2.003 -73.992)"/><path class="c" d="M290.157,14.363,278.926,2.206a1.553,1.553,0,0,0-2.281,0L265.414,14.363a1.553,1.553,0,0,0,1.14,2.606h3.069V50.729a1.553,1.553,0,0,0,1.077,1.478l6.434,2.072a1.551,1.551,0,0,0,.476.075h0l6.357-.016a1.553,1.553,0,0,0,1.549-1.553V16.969h3.5a1.553,1.553,0,0,0,1.141-2.606Z" transform="translate(-237.569)"/><path class="d" d="M400.873,14.363,389.642,2.206a1.552,1.552,0,0,0-1.141-.5V54.353l6.186-.016a1.553,1.553,0,0,0,1.549-1.553V16.969h3.5a1.553,1.553,0,0,0,1.141-2.606Z" transform="translate(-348.285)"/><path class="e" d="M40.041,259.612H1.553A1.553,1.553,0,0,0,0,261.165v22.8a1.553,1.553,0,0,0,1.553,1.553H40.041a1.553,1.553,0,0,0,1.553-1.553v-22.8A1.553,1.553,0,0,0,40.041,259.612Z" transform="translate(0 -231.208)"/><g transform="translate(0 28.404)"><path class="f" d="M225.053,259.612H206.375v25.909h18.678a1.553,1.553,0,0,0,1.553-1.553v-22.8A1.553,1.553,0,0,0,225.053,259.612Z" transform="translate(-185.012 -259.612)"/><path class="f" d="M7.785,259.612H1.553A1.553,1.553,0,0,0,0,261.165v5.617A8.343,8.343,0,0,0,7.785,259.612Z" transform="translate(0 -259.612)"/><path class="f" d="M0,440.647v5.617a1.553,1.553,0,0,0,1.553,1.553H7.785A8.343,8.343,0,0,0,0,440.647Z" transform="translate(0 -421.907)"/></g><path class="g" d="M334.389,266.78v-5.617a1.553,1.553,0,0,0-1.553-1.553H326.6A8.343,8.343,0,0,0,334.389,266.78Z" transform="translate(-292.795 -231.207)"/><path class="g" d="M326.6,447.816h6.233a1.553,1.553,0,0,0,1.553-1.553v-5.617A8.343,8.343,0,0,0,326.6,447.816Z" transform="translate(-292.795 -393.503)"/><path class="h" d="M92.322,171.927H87.984V181h4.338a4.538,4.538,0,1,0,0-9.077Z" transform="translate(-78.876 -152.6)"/><path class="a" d="M92.322,93.32a4.538,4.538,0,1,0,0-9.077H87.984V93.32Z" transform="translate(-78.876 -73.992)"/><circle class="i" cx="8.19" cy="8.19" r="8.19" transform="translate(13.173 33.029)"/><path class="g" d="M206.375,304.291v16.381a8.19,8.19,0,1,0,0-16.381Z" transform="translate(-185.012 -271.262)"/></g></svg>