<svg xmlns="http://www.w3.org/2000/svg" width="22" height="20" viewBox="0 0 22 20"><defs><style>.a{fill:#87bd40;}</style></defs><g transform="translate(-2.168 -4.293)"><path class="a" d="M21.3,4.293l-1.543,1.6a8.372,8.372,0,0,1,0,11.392l1.543,1.6A10.718,10.718,0,0,0,21.3,4.293ZM16.488,9.279a3.256,3.256,0,0,1,0,4.615l1.543,1.6a5.568,5.568,0,0,0,0-7.809ZM6.575,5.89l-1.543-1.6a10.718,10.718,0,0,0,0,14.586l1.543-1.6A8.372,8.372,0,0,1,6.575,5.89Z"/><path class="a" d="M7.426,7.293a5.569,5.569,0,0,0,0,7.809l1.543-1.6a3.256,3.256,0,0,1,0-4.615Zm7.318,3.622a2.183,2.183,0,1,0-4.364,0,2.273,2.273,0,0,0,.976,1.882L10.382,23.9h4.36L13.768,12.8A2.273,2.273,0,0,0,14.744,10.915Z" transform="translate(0.333 0.388)"/></g></svg>