<svg xmlns="http://www.w3.org/2000/svg" width="20" height="20" viewBox="0 0 20 20"><defs><style>.a{fill:#87bd40;}</style></defs><path class="a" d="M21,3H14a2.9,2.9,0,0,0-2,.821A2.9,2.9,0,0,0,10,3H3A1.027,1.027,0,0,0,2,4.053V19.842a1.026,1.026,0,0,0,1,1.053H8.758a1.965,1.965,0,0,1,1.414.617l1.121,1.18c.009.009.021.013.03.022a1.02,1.02,0,0,0,.294.206h0a.947.947,0,0,0,.762,0h0a1.02,1.02,0,0,0,.294-.206c.009-.009.021-.013.03-.022l1.121-1.18a1.965,1.965,0,0,1,1.414-.617H21a1.026,1.026,0,0,0,1-1.053V4.053A1.027,1.027,0,0,0,21,3ZM8.758,18.789H4V5.105h6a1.028,1.028,0,0,1,1,1.053V19.515A3.891,3.891,0,0,0,8.758,18.789Zm11.242,0H15.242A3.891,3.891,0,0,0,13,19.515V6.158a1.028,1.028,0,0,1,1-1.053h6Z" transform="translate(-2 -3)"/></svg>