<svg xmlns="http://www.w3.org/2000/svg" width="20" height="20" viewBox="0 0 20 20"><defs><style>.a{fill:none;}.b{fill:#87bd40;}</style></defs><g transform="translate(-2 -2)"><path class="a" d="M12,4a8,8,0,1,0,8,8A8.009,8.009,0,0,0,12,4Zm1,12.915V18H11V16.92c-2.339-.367-3-2-3-2.92h2c.011.143.159,1,2,1,1.38,0,2-.585,2-1,0-.324,0-1-2-1-3.48,0-4-1.88-4-3,0-1.288,1.029-2.584,3-2.915V6.012h2V7.121A3,3,0,0,1,15.4,10h-1l-1,.018C13.386,9.638,13.185,9,12,9c-1.3,0-2,.516-2,1,0,.374,0,1,2,1,3.48,0,4,1.88,4,3C16,15.288,14.971,16.584,13,16.915Z"/><path class="b" d="M12,2A10,10,0,1,0,22,12,10.011,10.011,0,0,0,12,2Zm0,18a8,8,0,1,1,8-8A8.009,8.009,0,0,1,12,20Z"/><path class="b" d="M12,11c-2,0-2-.626-2-1,0-.484.7-1,2-1,1.185,0,1.386.638,1.4,1.018l1-.018h1A3,3,0,0,0,13,7.121V6.012H11V7.085C9.029,7.416,8,8.712,8,10c0,1.12.52,3,4,3,2,0,2,.676,2,1,0,.415-.62,1-2,1-1.841,0-1.989-.857-2-1H8c0,.918.661,2.553,3,2.92V18h2V16.915c1.971-.331,3-1.627,3-2.915C16,12.88,15.48,11,12,11Z"/></g></svg>