<svg xmlns="http://www.w3.org/2000/svg" width="52.025" height="53.369" viewBox="0 0 52.025 53.369"><defs><style>.a{fill:#87bd40;}.b{fill:#004d26;}.c{fill:#076535;}.d{fill:#f4efdc;}.e{fill:#eae3cc;}.f{fill:#ffb157;}</style></defs><g transform="translate(-1)"><path class="a" d="M39.066,5H1V17.07H52.992V5Z" transform="translate(0 -0.358)"/><circle class="b" cx="1.5" cy="1.5" r="1.5" transform="translate(17.025 7.369)"/><circle class="b" cx="1.5" cy="1.5" r="1.5" transform="translate(23.025 7.369)"/><circle class="b" cx="1.5" cy="1.5" r="1.5" transform="translate(28.025 7.369)"/><circle class="b" cx="1.5" cy="1.5" r="1.5" transform="translate(33.025 7.369)"/><path class="c" d="M37.785,0A4.6,4.6,0,0,0,35,.952,4.655,4.655,0,0,1,36.221,2.34a2.785,2.785,0,1,1,1.564,5.088.928.928,0,0,0,0,1.857,4.642,4.642,0,1,0,0-9.284Z" transform="translate(-2.433)"/><path class="b" d="M33.636,2.52A4.583,4.583,0,0,0,33,4.823h1.857A2.784,2.784,0,0,0,33.636,2.52Z" transform="translate(-2.29 -0.18)"/><path class="b" d="M27.636,2.52A4.583,4.583,0,0,0,27,4.823h1.857A2.784,2.784,0,0,0,27.636,2.52Z" transform="translate(-1.861 -0.18)"/><path class="c" d="M35.791,2.34A4.655,4.655,0,0,0,34.571.952,4.552,4.552,0,0,0,29,.952,4.654,4.654,0,0,1,30.221,2.34a2.785,2.785,0,1,1,1.564,5.088.928.928,0,0,0,0,1.857,4.647,4.647,0,0,0,4.642-4.642A4.583,4.583,0,0,0,35.791,2.34Z" transform="translate(-2.004)"/><path class="b" d="M21.636,2.52A4.583,4.583,0,0,0,21,4.823h1.857A2.784,2.784,0,0,0,21.636,2.52Z" transform="translate(-1.431 -0.18)"/><path class="c" d="M29.791,2.34A4.654,4.654,0,0,0,28.571.952,4.552,4.552,0,0,0,23,.952,4.654,4.654,0,0,1,24.221,2.34a2.785,2.785,0,1,1,1.564,5.088.928.928,0,0,0,0,1.857,4.647,4.647,0,0,0,4.642-4.642A4.583,4.583,0,0,0,29.791,2.34Z" transform="translate(-1.574)"/><path class="c" d="M23.648,2.34A4.654,4.654,0,0,0,22.427.952,4.6,4.6,0,0,0,19.642,0,4.647,4.647,0,0,0,15,4.642h1.857a2.785,2.785,0,1,1,2.785,2.785.928.928,0,1,0,0,1.857,4.647,4.647,0,0,0,4.642-4.642A4.583,4.583,0,0,0,23.648,2.34Z" transform="translate(-1.002)"/><rect class="d" width="52" height="37" transform="translate(1.025 16.369)"/><circle class="e" cx="4" cy="4" r="4" transform="translate(8.025 23.369)"/><circle class="e" cx="4" cy="4" r="4" transform="translate(23.025 23.369)"/><circle class="e" cx="4" cy="4" r="4" transform="translate(38.025 23.369)"/><circle class="e" cx="4" cy="4" r="4" transform="translate(8.025 37.369)"/><circle class="e" cx="4" cy="4" r="4" transform="translate(23.025 37.369)"/><circle class="f" cx="4" cy="4" r="4" transform="translate(38.025 37.369)"/></g></svg>