<svg width="14" height="14" viewBox="0 0 14 14" fill="none" xmlns="http://www.w3.org/2000/svg">
<path fill-rule="evenodd" clip-rule="evenodd" d="M10.2083 2.91666H12.25C13.2417 2.91666 14 3.67499 14 4.66666V11.0833C14 12.075 13.2417 12.8333 12.25 12.8333H1.75C0.758333 12.8333 0 12.075 0 11.0833V4.66666C0 3.67499 0.758333 2.91666 1.75 2.91666H3.79167L4.78333 1.39999C4.9 1.28332 5.075 1.16666 5.25 1.16666H8.75C8.925 1.16666 9.1 1.28332 9.21667 1.39999L10.2083 2.91666ZM12.25 11.6667C12.6 11.6667 12.8333 11.4333 12.8333 11.0833V4.66666C12.8333 4.31666 12.6 4.08332 12.25 4.08332H9.91667C9.74167 4.08332 9.56667 3.96666 9.39167 3.84999L8.4 2.33332H5.54167L4.55 3.84999C4.43333 3.96666 4.25833 4.08332 4.08333 4.08332H1.75C1.4 4.08332 1.16667 4.31666 1.16667 4.66666V11.0833C1.16667 11.4333 1.4 11.6667 1.75 11.6667H12.25ZM7 4.66666C5.36667 4.66666 4.08333 5.94999 4.08333 7.58332C4.08333 9.21666 5.36667 10.5 7 10.5C8.63333 10.5 9.91667 9.21666 9.91667 7.58332C9.91667 5.94999 8.63333 4.66666 7 4.66666ZM5.25 7.58332C5.25 8.57499 6.00833 9.33332 7 9.33332C7.99167 9.33332 8.75 8.57499 8.75 7.58332C8.75 6.59166 7.99167 5.83332 7 5.83332C6.00833 5.83332 5.25 6.59166 5.25 7.58332Z" fill="black"/>
<mask id="mask0" mask-type="alpha" maskUnits="userSpaceOnUse" x="0" y="1" width="14" height="12">
<path fill-rule="evenodd" clip-rule="evenodd" d="M10.2083 2.91666H12.25C13.2417 2.91666 14 3.67499 14 4.66666V11.0833C14 12.075 13.2417 12.8333 12.25 12.8333H1.75C0.758333 12.8333 0 12.075 0 11.0833V4.66666C0 3.67499 0.758333 2.91666 1.75 2.91666H3.79167L4.78333 1.39999C4.9 1.28332 5.075 1.16666 5.25 1.16666H8.75C8.925 1.16666 9.1 1.28332 9.21667 1.39999L10.2083 2.91666ZM12.25 11.6667C12.6 11.6667 12.8333 11.4333 12.8333 11.0833V4.66666C12.8333 4.31666 12.6 4.08332 12.25 4.08332H9.91667C9.74167 4.08332 9.56667 3.96666 9.39167 3.84999L8.4 2.33332H5.54167L4.55 3.84999C4.43333 3.96666 4.25833 4.08332 4.08333 4.08332H1.75C1.4 4.08332 1.16667 4.31666 1.16667 4.66666V11.0833C1.16667 11.4333 1.4 11.6667 1.75 11.6667H12.25ZM7 4.66666C5.36667 4.66666 4.08333 5.94999 4.08333 7.58332C4.08333 9.21666 5.36667 10.5 7 10.5C8.63333 10.5 9.91667 9.21666 9.91667 7.58332C9.91667 5.94999 8.63333 4.66666 7 4.66666ZM5.25 7.58332C5.25 8.57499 6.00833 9.33332 7 9.33332C7.99167 9.33332 8.75 8.57499 8.75 7.58332C8.75 6.59166 7.99167 5.83332 7 5.83332C6.00833 5.83332 5.25 6.59166 5.25 7.58332Z" fill="white"/>
</mask>
<g mask="url(#mask0)">
<rect width="14" height="14" fill="white"/>
</g>
</svg>
