<svg xmlns="http://www.w3.org/2000/svg" width="19" height="19" viewBox="0 0 19 19"><defs><style>.a{fill:#076535;}.b{fill:none;}</style></defs><path class="a" d="M7.75,9.125H6.167v1.583H7.75Zm3.167,0H9.333v1.583h1.583Zm3.167,0H12.5v1.583h1.583Zm1.583-5.542h-.792V2H13.292V3.583H6.958V2H5.375V3.583H4.583A1.576,1.576,0,0,0,3.008,5.167L3,16.25a1.583,1.583,0,0,0,1.583,1.583H15.667A1.588,1.588,0,0,0,17.25,16.25V5.167A1.588,1.588,0,0,0,15.667,3.583Zm0,12.667H4.583V7.542H15.667Z" transform="translate(-0.625 -0.417)"/><path class="b" d="M0,0H19V19H0Z"/></svg>