<svg width="74" height="70" viewBox="0 0 74 70" fill="none" xmlns="http://www.w3.org/2000/svg">
<path opacity="0.2" d="M39.1713 64.703C55.3706 64.703 68.7172 51.8628 68.7172 35.7624C68.7172 19.662 55.3706 6.82178 39.1713 6.82178C22.972 6.82178 9.62549 19.662 9.62549 35.7624C9.62549 51.8628 22.972 64.703 39.1713 64.703Z" stroke="#FEB800" stroke-width="10"/>
<path opacity="0.4" d="M34.2869 64.2573C38.6432 64.9785 43.1036 64.7374 47.3418 63.5563C51.5798 62.3752 55.4926 60.2829 58.7934 57.432C62.0944 54.581 64.7028 51.0408 66.423 47.0679C68.1433 43.0946 68.9317 38.7886 68.7238 34.4659C68.5159 30.1429 67.3169 25.9166 65.2129 22.0998C63.1089 18.2831 60.1561 14.9779 56.5752 12.4258C52.9945 9.87401 48.8792 8.14183 44.5349 7.35075C40.1908 6.55974 35.7265 6.72936 31.4688 7.84244" stroke="#FEB800" stroke-width="10"/>
<g opacity="0.74" filter="url(#filter0_d)">
<path d="M31.795 7.79886C27.579 8.86004 23.653 10.8152 20.2975 13.5263C16.9418 16.2373 14.2403 19.6367 12.3853 23.4819C10.5303 27.327 9.56811 31.5223 9.56567 35.7683C9.56323 40.0142 10.5205 44.2062 12.3677 48.0463" stroke="#FEB800" stroke-width="10"/>
</g>
<path d="M52.2153 29.55L35.7595 46.05C35.4603 46.35 35.1611 46.5 34.7123 46.5C34.2635 46.5 33.9643 46.35 33.6651 46.05L26.1851 38.55C25.5867 37.95 25.5867 37.05 26.1851 36.45C26.7835 35.85 27.6811 35.85 28.2795 36.45L34.7123 42.9L50.1209 27.45C50.7193 26.85 51.6169 26.85 52.2153 27.45C52.8137 28.05 52.8137 28.95 52.2153 29.55Z" fill="black"/>
<mask id="mask0" mask-type="alpha" maskUnits="userSpaceOnUse" x="25" y="27" width="28" height="20">
<path d="M52.2153 29.55L35.7595 46.05C35.4603 46.35 35.1611 46.5 34.7123 46.5C34.2635 46.5 33.9643 46.35 33.6651 46.05L26.1851 38.55C25.5867 37.95 25.5867 37.05 26.1851 36.45C26.7835 35.85 27.6811 35.85 28.2795 36.45L34.7123 42.9L50.1209 27.45C50.7193 26.85 51.6169 26.85 52.2153 27.45C52.8137 28.05 52.8137 28.95 52.2153 29.55Z" fill="white"/>
</mask>
<g mask="url(#mask0)">
<rect x="21.2485" y="18" width="35.9037" height="36" fill="#393E42"/>
</g>
<defs>
<filter id="filter0_d" x="0.505859" y="0.0163574" width="38.5322" height="57.1456" filterUnits="userSpaceOnUse" color-interpolation-filters="sRGB">
<feFlood flood-opacity="0" result="BackgroundImageFix"/>
<feColorMatrix in="SourceAlpha" type="matrix" values="0 0 0 0 0 0 0 0 0 0 0 0 0 0 0 0 0 0 127 0"/>
<feOffset dx="1" dy="2"/>
<feGaussianBlur stdDeviation="2.5"/>
<feColorMatrix type="matrix" values="0 0 0 0 0.996078 0 0 0 0 0.721569 0 0 0 0 0 0 0 0 1 0"/>
<feBlend mode="normal" in2="BackgroundImageFix" result="effect1_dropShadow"/>
<feBlend mode="normal" in="SourceGraphic" in2="effect1_dropShadow" result="shape"/>
</filter>
</defs>
</svg>
