<svg xmlns="http://www.w3.org/2000/svg" width="53" height="53" viewBox="0 0 53 53"><defs><style>.a{fill:#ffb157;}.b{fill:#eb9127;}.c{fill:#f4efdc;}.d{fill:#cec9ae;}.e{fill:#d1bf86;}</style></defs><path class="a" d="M10.669,55.328h40.9a1.429,1.429,0,0,0,1.38-1.8L43.66,28.056A1.429,1.429,0,0,0,42.28,27H1.38C.438,27,0,27.9,0,28.8l9.29,25.468A1.429,1.429,0,0,0,10.669,55.328Z" transform="translate(0 -2.328)"/><path class="b" d="M49.583,18h2.072v8.224H48V19.583A1.583,1.583,0,0,1,49.583,18Z" transform="translate(-42.517 -1.552)"/><path class="b" d="M0,11H2.072a1.583,1.583,0,0,1,1.583,1.583V51.627c-.063,0-.126.005-.187.009L0,42.18Z" transform="translate(49.345 -0.948)"/><path class="c" d="M44.522,25.729a1.429,1.429,0,0,0-1.38-1.056H10V0H44.724V26.282Z" transform="translate(-0.862)"/><g transform="translate(14.621 6.397)"><path class="d" d="M38.845,15.828H16.914a.914.914,0,1,1,0-1.828H38.845a.914.914,0,0,1,0,1.828Z" transform="translate(-16 -7.603)"/><path class="d" d="M26.052,8.828H16.914a.914.914,0,0,1,0-1.828h9.138a.914.914,0,0,1,0,1.828Z" transform="translate(-3.207 -7)"/><path class="d" d="M16.914,21H38.845a.914.914,0,0,1,0,1.828H16.914a.914.914,0,1,1,0-1.828Z" transform="translate(-16 -8.207)"/></g><path class="d" d="M7,26.454V2H9.741V33.97Z" transform="translate(36.862 -0.172)"/><path class="e" d="M4,34.142V4H6.741V41.658Z" transform="translate(42.603 -0.345)"/></svg>