<svg xmlns="http://www.w3.org/2000/svg" xmlns:xlink="http://www.w3.org/1999/xlink" width="53" height="53" viewBox="0 0 53 53"><defs><style>.a{fill:#fac176;}.b{fill:#004a24;}.c{fill:#ffa134;}.d{fill:url(#a);}.e{fill:url(#b);}.f{fill:url(#c);}.g{fill:#7ab42e;}.h{fill:#2c2f38;}</style><linearGradient id="a" x2="1" y2="1" gradientUnits="objectBoundingBox"><stop offset="0" stop-color="#076535"/><stop offset="1" stop-color="#018b44"/></linearGradient><linearGradient id="b" x1="1.315" y1="1.32" x2="-0.307" y2="-0.31" xlink:href="#a"/><linearGradient id="c" x1="0.039" y1="0.927" x2="0.93" y2="0.106" gradientUnits="objectBoundingBox"><stop offset="0" stop-color="#87bd40"/><stop offset="1" stop-color="#b9f767"/></linearGradient></defs><path class="a" d="M378.031,5.467l11.9-5.354a.914.914,0,0,1,1.21,1.21l-5.355,11.9Zm0,0" transform="translate(-338.227 -0.028)"/><path class="b" d="M40.372,347.979l-.338-.338a1.828,1.828,0,0,0-2.586,0l-1.289,1.3a1.82,1.82,0,0,0,0,2.576l7.758,7.758a1.82,1.82,0,0,0,2.577,0l1.3-1.288a1.828,1.828,0,0,0,0-2.586Zm0,0" transform="translate(-31.874 -310.558)"/><path class="c" d="M9.61,389.027l7.753,7.753-2.584,2.584a3.655,3.655,0,0,1-5.169,0l-2.585-2.584a3.655,3.655,0,0,1,0-5.169Zm0,0" transform="translate(-5.328 -348.065)"/><path class="d" d="M37.628,7.612a21.525,21.525,0,0,0-6.652-2.577l-.9-4.3A.914.914,0,0,0,29.182,0H23.815a.914.914,0,0,0-.895.731l-.9,4.3A21.428,21.428,0,0,0,14.492,8.16L10.809,5.744a.914.914,0,0,0-1.147.118l-3.8,3.8a.914.914,0,0,0-.118,1.147L8.16,14.492a21.428,21.428,0,0,0-3.125,7.529l-4.3.9A.914.914,0,0,0,0,23.815v5.367a.914.914,0,0,0,.731.895l4.3.9a21.525,21.525,0,0,0,2.577,6.652c.073.137.164.283.256.42.091.155.192.3.292.447L5.743,42.187a.913.913,0,0,0,.118,1.147l3.8,3.8a.914.914,0,0,0,1.147.119L14.5,44.837c.146.1.292.2.448.292.137.091.283.183.42.256a21.536,21.536,0,0,0,6.652,2.577l.9,4.307a.913.913,0,0,0,.895.731h5.367a.914.914,0,0,0,.895-.731l.9-4.307A21.443,21.443,0,0,0,38.5,44.837l3.682,2.416a.914.914,0,0,0,1.147-.118l3.8-3.8a.914.914,0,0,0,.118-1.147L44.837,38.5a21.443,21.443,0,0,0,3.125-7.529l4.307-.9A.914.914,0,0,0,53,29.182V23.815a.913.913,0,0,0-.731-.895l-4.307-.9a21.536,21.536,0,0,0-2.577-6.652Zm0,0" transform="translate(0 0)"/><path class="e" d="M118.986,97.065a16.24,16.24,0,0,0-7.081-1.608A16.447,16.447,0,1,0,128.351,111.9a16.24,16.24,0,0,0-1.608-7.081Zm0,0" transform="translate(-85.406 -85.406)"/><path class="b" d="M175.308,164.973l-10.334,10.334a8.558,8.558,0,0,1-.091-1.289,9.137,9.137,0,0,1,9.137-9.137A8.558,8.558,0,0,1,175.308,164.973Zm0,0" transform="translate(-147.521 -147.521)"/><path class="f" d="M188.1,51.633l-2.175,2.175-4.048,4.048-5.793,5.793L165.75,73.983a9.089,9.089,0,0,0,2.586,5.172l23.638-23.638Zm0,0" transform="translate(-148.298 -46.196)"/><path class="g" d="M213.947,88.516l-23.638,23.638a9.092,9.092,0,0,0,5.172,2.586l9.786-9.786L217.83,92.39Zm0,0" transform="translate(-170.27 -79.196)"/><g transform="translate(25.21 0.002)"><path class="h" d="M454.093,1.317l-2.01,4.468a11.1,11.1,0,0,1-2.074-1.636,11.343,11.343,0,0,1-1.617-2.028L452.877.1a.92.92,0,0,1,1.215,1.215Zm0,0" transform="translate(-426.388 -0.021)"/><path class="b" d="M239.426,249.76l10.334-10.334a8.548,8.548,0,0,1,.091,1.288,9.137,9.137,0,0,1-9.138,9.138A8.548,8.548,0,0,1,239.426,249.76Zm0,0" transform="translate(-239.426 -214.218)"/></g></svg>