<svg width="20" height="20" viewBox="0 0 20 20" fill="none" xmlns="http://www.w3.org/2000/svg">
<path fill-rule="evenodd" clip-rule="evenodd" d="M19.1667 14.1667C19.1667 14.6667 18.8334 15 18.3334 15H1.66671C1.16671 15 0.833374 14.6667 0.833374 14.1667C0.833374 13.6667 1.16671 13.3334 1.66671 13.3334C2.58337 13.3334 3.33337 12.5834 3.33337 11.6667V7.50004C3.33337 3.83337 6.33337 0.833374 10 0.833374C13.6667 0.833374 16.6667 3.83337 16.6667 7.50004V11.6667C16.6667 12.5834 17.4167 13.3334 18.3334 13.3334C18.8334 13.3334 19.1667 13.6667 19.1667 14.1667ZM12.1667 17.9167C11.6667 18.75 10.8334 19.1667 10 19.1667C9.58337 19.1667 9.16671 19.0834 8.75004 18.8334C8.33338 18.5834 8.08338 18.3334 7.83338 17.9167C7.58338 17.5 7.75004 17 8.16671 16.75C8.58338 16.5 9.08338 16.6667 9.33338 17.0834C9.3586 17.1086 9.38383 17.1415 9.41137 17.1773L9.41138 17.1774C9.47481 17.26 9.5505 17.3586 9.66671 17.4167C10.0834 17.6667 10.5834 17.5 10.8334 17.0834C11.0834 16.6667 11.5834 16.5834 12 16.75C12.4167 16.9167 12.4167 17.5 12.1667 17.9167ZM15 11.6667C15 12.25 15.1667 12.8334 15.4167 13.3334H4.58337C4.83337 12.8334 5.00004 12.25 5.00004 11.6667V7.50004C5.00004 4.75004 7.25004 2.50004 10 2.50004C12.75 2.50004 15 4.75004 15 7.50004V11.6667Z" fill="white"/>
<mask id="mask0" mask-type="alpha" maskUnits="userSpaceOnUse" x="0" y="0" width="20" height="20">
<path fill-rule="evenodd" clip-rule="evenodd" d="M19.1667 14.1667C19.1667 14.6667 18.8334 15 18.3334 15H1.66671C1.16671 15 0.833374 14.6667 0.833374 14.1667C0.833374 13.6667 1.16671 13.3334 1.66671 13.3334C2.58337 13.3334 3.33337 12.5834 3.33337 11.6667V7.50004C3.33337 3.83337 6.33337 0.833374 10 0.833374C13.6667 0.833374 16.6667 3.83337 16.6667 7.50004V11.6667C16.6667 12.5834 17.4167 13.3334 18.3334 13.3334C18.8334 13.3334 19.1667 13.6667 19.1667 14.1667ZM12.1667 17.9167C11.6667 18.75 10.8334 19.1667 10 19.1667C9.58337 19.1667 9.16671 19.0834 8.75004 18.8334C8.33338 18.5834 8.08338 18.3334 7.83338 17.9167C7.58338 17.5 7.75004 17 8.16671 16.75C8.58338 16.5 9.08338 16.6667 9.33338 17.0834C9.3586 17.1086 9.38383 17.1415 9.41137 17.1773L9.41138 17.1774C9.47481 17.26 9.5505 17.3586 9.66671 17.4167C10.0834 17.6667 10.5834 17.5 10.8334 17.0834C11.0834 16.6667 11.5834 16.5834 12 16.75C12.4167 16.9167 12.4167 17.5 12.1667 17.9167ZM15 11.6667C15 12.25 15.1667 12.8334 15.4167 13.3334H4.58337C4.83337 12.8334 5.00004 12.25 5.00004 11.6667V7.50004C5.00004 4.75004 7.25004 2.50004 10 2.50004C12.75 2.50004 15 4.75004 15 7.50004V11.6667Z" fill="white"/>
</mask>
<g mask="url(#mask0)">
<rect width="20" height="20" fill="white"/>
</g>
</svg>
