<svg xmlns="http://www.w3.org/2000/svg" xmlns:xlink="http://www.w3.org/1999/xlink" width="53" height="50.249" viewBox="0 0 53 50.249"><defs><style>.a{fill:url(#a);}.b{fill:url(#b);}.c{fill:#04733a;opacity:0.25;}.d{fill:#ffa134;}.e{fill:#f9eab0;}.f{fill:#ff8900;}.g{fill:#fff;}</style><linearGradient id="a" x1="0.5" x2="0.516" y2="1.271" gradientUnits="objectBoundingBox"><stop offset="0" stop-color="#87bd40"/><stop offset="1" stop-color="#b9f767"/></linearGradient><linearGradient id="b" x1="0.5" x2="0.5" y2="1" gradientUnits="objectBoundingBox"><stop offset="0" stop-color="#076535"/><stop offset="1" stop-color="#018b44"/></linearGradient></defs><path class="a" d="M19.82,31.655H17.362L10.966,28,0,45.362l10.052,7.31h32.9L53,45.362,42.034,28l-6.4,3.655H19.82Z" transform="translate(0 -2.423)"/><path class="b" d="M17.362,31.655l-7.31,21.017L0,45.362,10.966,28Z" transform="translate(0 -2.423)"/><path class="b" d="M56.362,45.362,46.31,52.672,39,31.655,45.4,28Z" transform="translate(-3.362 -2.423)"/><path class="c" d="M36.448,39.68c0,2.019-3.655,3.655-8.224,3.655S20,41.7,20,39.68c0-1.544,2.147-2.86,5.181-3.39a27.414,27.414,0,0,0,3.043,2.476,27.415,27.415,0,0,0,3.043-2.476C34.3,36.82,36.448,38.136,36.448,39.68Z" transform="translate(-1.724 -3.138)"/><path class="d" d="M40.586,12.794a25.44,25.44,0,0,1-4.076,13.588c-.1.174-.21.329-.32.493-.557.85-1.133,1.636-1.718,2.367a33.491,33.491,0,0,1-3.655,3.92,27.414,27.414,0,0,1-3.025,2.476,27.414,27.414,0,0,1-3.043-2.476,33.491,33.491,0,0,1-3.655-3.92c-.585-.731-1.161-1.517-1.718-2.367-.11-.164-.219-.32-.32-.493A25.44,25.44,0,0,1,15,12.794,12.61,12.61,0,0,1,16.133,7.54a12.793,12.793,0,0,1,23.32,0,12.61,12.61,0,0,1,1.133,5.254Z" transform="translate(-1.293 -0.01)"/><circle class="e" cx="8.224" cy="8.224" r="8.224" transform="translate(18.276 4.559)"/><path class="f" d="M28.138,22.276A9.138,9.138,0,1,1,34.6,19.6,9.138,9.138,0,0,1,28.138,22.276Zm0-16.448a7.31,7.31,0,1,0,5.169,2.141,7.31,7.31,0,0,0-5.169-2.141Z" transform="translate(-1.638 -0.354)"/><g transform="translate(14.621 45.68)"><path class="g" d="M18.741,51.828H16.914a.914.914,0,1,1,0-1.828h1.828a.914.914,0,1,1,0,1.828Z" transform="translate(-16 -50)"/><path class="g" d="M33.879,51.828H22.914a.914.914,0,1,1,0-1.828H33.879a.914.914,0,1,1,0,1.828Z" transform="translate(-16.517 -50)"/></g></svg>