<svg xmlns="http://www.w3.org/2000/svg" xmlns:xlink="http://www.w3.org/1999/xlink" width="53" height="53" viewBox="0 0 53 53"><defs><style>.a{fill:url(#a);}.b{fill:#94ce47;}.c{fill:#004d26;}.d{fill:#076535;}.e{fill:#ffa134;}.f{fill:#fff;}.g{fill:#f09730;}</style><linearGradient id="a" x1="1" y1="1" x2="0" gradientUnits="objectBoundingBox"><stop offset="0" stop-color="#87bd40"/><stop offset="1" stop-color="#b9f767"/></linearGradient></defs><path class="a" d="M53,26.5a26.678,26.678,0,0,1-.3,4,26.069,26.069,0,0,1-1.114,4.558,25.717,25.717,0,0,1-1.143,2.812h0a26.345,26.345,0,0,1-1.4,2.559c-.1.16-.2.32-.3.478a26.448,26.448,0,0,1-2.091,2.8q-.8.933-1.68,1.79-.853.832-1.78,1.582-.18.148-.363.291A26.429,26.429,0,0,1,37.313,50.7a25.78,25.78,0,0,1-2.774,1.058,26.292,26.292,0,0,1-4.283.978h0A26.5,26.5,0,1,1,53,26.5Z"/><path class="b" d="M88.019,21.929a22.077,22.077,0,0,1-.249,3.311,21.571,21.571,0,0,1-.922,3.772,21.254,21.254,0,0,1-.946,2.327h0a21.768,21.768,0,0,1-1.156,2.118c-.082.132-.166.265-.251.4a21.857,21.857,0,0,1-1.73,2.316q-.661.772-1.39,1.481-.706.689-1.473,1.309-.149.122-.3.241a21.87,21.87,0,0,1-4.564,2.753,21.316,21.316,0,0,1-2.3.875,21.758,21.758,0,0,1-3.544.809h0A21.93,21.93,0,1,1,88.019,21.929Z" transform="translate(-39.591)"/><g transform="translate(6.007 0.599)"><path class="c" d="M58.032,7.526l3.109-1.472a2.79,2.79,0,0,1,3.515.973h0l8.169,12.253a2.79,2.79,0,0,1-.048,3.164L70.21,26.053l-.105-.076L61.05,18.651Z" transform="translate(-58.032 -5.785)"/><path class="c" d="M382.848,366.387a26.455,26.455,0,0,1-2.091,2.8q-.8.933-1.68,1.79-.854.832-1.78,1.582l-4.536-5.715-.077-.108,5.174-3.675Z" transform="translate(-340.113 -326.076)"/></g><path class="d" d="M61.726,65.76q-.853.832-1.78,1.582-.18.148-.363.291a26.429,26.429,0,0,1-5.515,3.327,25.78,25.78,0,0,1-2.774,1.058A97.346,97.346,0,0,1,22.57,42.283q-.67-1.066-1.32-2.156c-.088-.147-.174-.292-.26-.439l-1.338-2.274a6.983,6.983,0,0,1-.438-6.2L22.761,22.6l2.013,3.077.85,1.3,9.209,14.075.106.076L32.457,44.62a44.052,44.052,0,0,0,8.318,11.066A44.011,44.011,0,0,0,51.841,64l3.491-2.483.077.108Z" transform="translate(-16.754 -20.261)"/><path class="c" d="M24.772,25.679s-5.542,8.815-2.2,16.6q-.67-1.066-1.32-2.156c-.088-.147-.174-.292-.26-.439L19.65,37.415a6.979,6.979,0,0,1-.438-6.2L22.759,22.6l2.013,3.077Z" transform="translate(-16.751 -20.261)"/><g transform="translate(23.755 3.569)"><path class="e" d="M7.573,25.682a9.341,9.341,0,0,0-.23-5.1C2.954,18.679,0,15.11,0,11.021,0,4.935,6.546,0,14.623,0S29.245,4.935,29.245,11.021,22.7,22.041,14.623,22.041q-.516,0-1.023-.026a14.771,14.771,0,0,1-4.8,4.6.814.814,0,0,1-.442.133A.826.826,0,0,1,7.573,25.682Z"/></g><g transform="translate(29.201 10.869)"><path class="f" d="M284.192,106.946h-9.805a.973.973,0,0,1-.973-.973h0a.973.973,0,0,1,.973-.973h9.805a.973.973,0,0,1,.973.973h0A.973.973,0,0,1,284.192,106.946Z" transform="translate(-273.413 -104.999)"/><path class="f" d="M292.3,145.081H274.386a.973.973,0,0,1-.973-.973h0a.973.973,0,0,1,.973-.973H292.3a.973.973,0,0,1,.973.973h0A.973.973,0,0,1,292.3,145.081Z" transform="translate(-273.413 -139.186)"/></g><path class="g" d="M8.358,26.744a.829.829,0,0,1-.656-.333.812.812,0,0,1-.129-.729,9.291,9.291,0,0,0-.229-5.1,13.575,13.575,0,0,1-5.317-3.96A9.05,9.05,0,0,1,0,11.021,9.807,9.807,0,0,1,4.283,3.229,17.221,17.221,0,0,1,14.623,0c.449,0,.9.016,1.347.046A16.719,16.719,0,0,0,6.542,3.573,9.688,9.688,0,0,0,2.7,11.021a9.051,9.051,0,0,0,2.025,5.6,13.571,13.571,0,0,0,5.317,3.96,9.41,9.41,0,0,1,.264,4.98c-.468.359-.973.712-1.5,1.05A.825.825,0,0,1,8.358,26.744Z" transform="translate(23.755 3.569)"/></svg>