<svg xmlns="http://www.w3.org/2000/svg" xmlns:xlink="http://www.w3.org/1999/xlink" width="53" height="56" viewBox="0 0 53 56"><defs><style>.a{fill:url(#a);}.b{fill:#ffe2b8;}.c{fill:#94ce47;}.d{fill:#fff;}.e{fill:#445ea0;}.f{fill:#293d7c;}.g{fill:#d9eafc;}.h{fill:#076535;}.i{fill:#004d26;}.j{fill:#aec1ed;}.k{fill:#ffc987;}.l{fill:#ffa134;}.m{fill:#f08d1a;}</style><linearGradient id="a" x1="1" y1="1" x2="0" y2="-0.044" gradientUnits="objectBoundingBox"><stop offset="0" stop-color="#87bd40"/><stop offset="1" stop-color="#b9f767"/></linearGradient></defs><g transform="translate(-11 0)"><circle class="a" cx="26.5" cy="26.5" r="26.5" transform="translate(11 3)"/><path class="b" d="M187.013,336.769a.216.216,0,0,0-.295-.079.951.951,0,0,1-.474.127.961.961,0,0,1-.831-.477l-.485-.84a.957.957,0,0,1,.35-1.306.216.216,0,1,0-.216-.374.951.951,0,0,1-.475.127.961.961,0,0,1-.831-.477l-.485-.84a.957.957,0,0,1,.35-1.306.216.216,0,1,0-.216-.374l-.459.265a.947.947,0,0,1-.473.126.969.969,0,0,1-.143-.011l-.032,0a.216.216,0,0,0-.187.324l.313.541a.945.945,0,0,1-.345,1.289l-1.285.742a.938.938,0,0,1-.468.125.949.949,0,0,1-.82-.471l-.423-.733-.183.106,4.785,8.288,3.142-1.814a.943.943,0,0,1-.215-.253l-.485-.84a.957.957,0,0,1,.35-1.306l.458-.264A.217.217,0,0,0,187.013,336.769Z" transform="translate(-149.766 -295.182)"/><path class="c" d="M89.918,22.878a23.032,23.032,0,0,1-.26,3.454,22.5,22.5,0,0,1-.962,3.935A22.174,22.174,0,0,1,87.71,32.7h0A22.711,22.711,0,0,1,86.5,34.905c-.086.138-.173.276-.261.413a22.8,22.8,0,0,1-1.8,2.417q-.689.805-1.45,1.545-.737.719-1.537,1.366-.156.127-.314.251a22.817,22.817,0,0,1-4.761,2.872,22.238,22.238,0,0,1-2.4.913,22.7,22.7,0,0,1-3.7.844h0A22.88,22.88,0,1,1,89.918,22.878Z" transform="translate(-32.496 8.1)"/><path class="d" d="M334.694,75.245l2.563-1.479a.542.542,0,0,0,.2-.738l-4.434-7.68a.542.542,0,0,0-.738-.2l-2.562,1.479Z" transform="translate(-284.299 -58.05)"/><path class="e" d="M168.061,255.008a.948.948,0,0,1,.82.471l.47.814a.216.216,0,0,0,.187.108h.016a.216.216,0,0,0,.185-.136.942.942,0,0,1,.408-.476l3.824-2.208.023-.011-2.546-4.409-5.283,3.05,1.637,2.836A.934.934,0,0,1,168.061,255.008Z" transform="translate(-138.408 -222.25)"/><g transform="translate(27.758 29.109)"><path class="f" d="M168.061,273.181a.948.948,0,0,1,.82.471l.47.814a.216.216,0,0,0,.187.108h.016a.216.216,0,0,0,.185-.136.942.942,0,0,1,.408-.476l.035-.02-2.545-4.408-1.472.85,1.637,2.836A.933.933,0,0,1,168.061,273.181Z" transform="translate(-166.166 -269.532)"/><path class="f" d="M212.418,340.892a.957.957,0,0,1,.35-1.306l.035-.02-.284-.493a.96.96,0,0,1-.814-.476l-.485-.84a.956.956,0,0,1-.006-.943l-.353-.611a.96.96,0,0,1-.814-.476l-.485-.84a.955.955,0,0,1-.006-.943l-.284-.492-.035.02a.948.948,0,0,1-.473.126.969.969,0,0,1-.143-.011l-.032,0a.216.216,0,0,0-.187.324l.313.541a.945.945,0,0,1-.164,1.151l3.042,5.269a.542.542,0,0,0,.738.2l.142-.082Z" transform="translate(-203.816 -326.55)"/></g><path class="d" d="M91.381,224.867l-2.863,1.653a.542.542,0,0,0-.2.738l2.305,3.993a.542.542,0,0,0,.738.2l2.864-1.653Z" transform="translate(-68.905 -200.582)"/><path class="g" d="M89.933,226.972l2-1.153-.549-.952-2.863,1.653a.542.542,0,0,0-.2.738l2.305,3.993a.542.542,0,0,0,.738.2l.4-.23-2.026-3.509A.542.542,0,0,1,89.933,226.972Z" transform="translate(-68.905 -200.582)"/><path class="d" d="M196.255,38.748l-9.337,14.286,4.119,7.135,17.04-.943Z" transform="translate(-156.919 -34.563)"/><path class="g" d="M196.255,38.748l-9.337,14.286,1.256,2.176,9.337-14.286Z" transform="translate(-156.919 -34.563)"/><path class="h" d="M120.369,172.023a.542.542,0,0,1-.2.738l-7.817,4.513a.542.542,0,0,1-.738-.2l-4.434-7.68a.542.542,0,0,1,.2-.738l7.817-4.513a.542.542,0,0,1,.738.2Z" transform="translate(-85.731 -146.353)"/><path class="i" d="M109.271,169.971a.542.542,0,0,1,.2-.738l6.968-4.023-.5-.869a.542.542,0,0,0-.738-.2l-7.817,4.513a.542.542,0,0,0-.2.738l4.434,7.68a.542.542,0,0,0,.738.2l.849-.49Z" transform="translate(-85.731 -146.353)"/><path class="h" d="M275.948,25.318a.542.542,0,0,1-.2.738l-2.118,1.223a.542.542,0,0,1-.738-.2L258.433,2.032a.542.542,0,0,1,.2-.738L260.748.072a.542.542,0,0,1,.738.2Z" transform="translate(-220.647)"/><path class="i" d="M260.269,2.644a.542.542,0,0,1,.2-.738l1.473-.85-.454-.787a.542.542,0,0,0-.738-.2L258.63,1.294a.542.542,0,0,0-.2.738l14.462,25.049a.542.542,0,0,0,.738.2l.645-.372Z" transform="translate(-220.646 0)"/><path class="g" d="M73.374,378.121l-8,4.619a26.589,26.589,0,0,0,7.263,6.243l5.256-3.035Z" transform="translate(-48.502 -337.285)"/><path class="j" d="M73.374,378.121l-8,4.619q.569.7,1.185,1.368l7.7-4.448Z" transform="translate(-48.502 -337.285)"/><path class="b" d="M165.043,308a1.163,1.163,0,0,1-1.584-.424l-2.184-3.783a1.163,1.163,0,0,1,.424-1.584l1.285-.742a1.163,1.163,0,0,1,1.584.424l2.184,3.783a1.163,1.163,0,0,1-.424,1.584Z" transform="translate(-133.907 -268.773)"/><path class="k" d="M186.06,305.68l-2.184-3.783a1.162,1.162,0,0,0-1.042-.578l2.183,3.781a1.163,1.163,0,0,1-.424,1.584l-1.285.742a1.149,1.149,0,0,1-.541.154v0a1.163,1.163,0,0,0,1.584.424l1.285-.742A1.163,1.163,0,0,0,186.06,305.68Z" transform="translate(-153.216 -268.776)"/><path class="l" d="M384.887,67.887a.81.81,0,0,1-.406-1.512,2.025,2.025,0,0,0-2.025-3.507.81.81,0,0,1-.81-1.4,3.645,3.645,0,1,1,3.645,6.313A.808.808,0,0,1,384.887,67.887Z" transform="translate(-330.256 -54.393)"/><path class="l" d="M373.127,43.9a.81.81,0,0,1-.406-1.512,5.265,5.265,0,1,0-5.265-9.118.81.81,0,0,1-.81-1.4A6.885,6.885,0,1,1,373.532,43.8.808.808,0,0,1,373.127,43.9Z" transform="translate(-316.876 -27.604)"/><path class="b" d="M203.113,288.338a1.175,1.175,0,0,1-.429,1.6l-3.824,2.208a1.175,1.175,0,0,1-1.6-.429l-.485-.84a1.175,1.175,0,0,1,.429-1.6l3.824-2.208a1.175,1.175,0,0,1,1.6.429Z" transform="translate(-165.572 -255.927)"/><path class="k" d="M198.431,292.072l-.485-.84a1.175,1.175,0,0,1,.429-1.6l3.824-2.208a1.156,1.156,0,0,1,.288-.117,1.176,1.176,0,0,0-1.46-.235L197.2,289.28a1.175,1.175,0,0,0-.429,1.6l.485.84a1.176,1.176,0,0,0,1.313.546A1.182,1.182,0,0,1,198.431,292.072Z" transform="translate(-165.572 -255.93)"/><path class="b" d="M222.7,312.456a1.175,1.175,0,0,1-.429,1.6l-3.824,2.208a1.175,1.175,0,0,1-1.6-.429l-.485-.84a1.175,1.175,0,0,1,.429-1.6l3.824-2.208a1.175,1.175,0,0,1,1.6.429Z" transform="translate(-183.046 -277.441)"/><path class="k" d="M218.022,316.187l-.485-.84a1.175,1.175,0,0,1,.429-1.6l3.824-2.208a1.154,1.154,0,0,1,.288-.117,1.176,1.176,0,0,0-1.46-.235l-3.824,2.208a1.175,1.175,0,0,0-.429,1.6l.485.84a1.175,1.175,0,0,0,1.313.546A1.166,1.166,0,0,1,218.022,316.187Z" transform="translate(-183.047 -277.441)"/><g transform="translate(34.819 36.46)"><path class="b" d="M238.045,339.026a1.175,1.175,0,0,1-.429,1.6l-3.824,2.208a1.175,1.175,0,0,1-1.6-.429l-.485-.84a1.175,1.175,0,0,1,.429-1.6l3.824-2.208a1.175,1.175,0,0,1,1.6.429Z" transform="translate(-231.55 -337.602)"/><path class="b" d="M249.132,368.049a1.175,1.175,0,0,1-.429,1.6l-3.824,2.208a1.175,1.175,0,0,1-1.6-.429l-.485-.84a1.175,1.175,0,0,1,.429-1.6l3.824-2.208a1.175,1.175,0,0,1,1.6.429Z" transform="translate(-241.44 -363.49)"/></g><g transform="translate(34.819 36.46)"><path class="k" d="M233.362,342.757l-.485-.84a1.175,1.175,0,0,1,.429-1.6l3.824-2.208a1.159,1.159,0,0,1,.288-.117,1.176,1.176,0,0,0-1.46-.235l-3.824,2.208a1.175,1.175,0,0,0-.429,1.6l.485.84a1.176,1.176,0,0,0,1.313.546A1.177,1.177,0,0,1,233.362,342.757Z" transform="translate(-231.549 -337.601)"/><path class="k" d="M244.449,371.782l-.485-.84a1.175,1.175,0,0,1,.429-1.6l3.824-2.208a1.159,1.159,0,0,1,.288-.117,1.176,1.176,0,0,0-1.46-.234l-3.824,2.208a1.175,1.175,0,0,0-.429,1.6l.485.84a1.175,1.175,0,0,0,1.313.546A1.174,1.174,0,0,1,244.449,371.782Z" transform="translate(-241.439 -363.491)"/></g><path class="m" d="M142.145,354.231a.542.542,0,0,1-.2.738l-3.719,2.147a.542.542,0,0,1-.738-.2l-5.395-9.344a.542.542,0,0,1,.2-.738l3.719-2.147a.542.542,0,0,1,.738.2Z" transform="translate(-107.954 -307.399)"/><path class="l" d="M152.431,355.394l-3.137,1.811a.542.542,0,0,0-.2.738l4.878,8.45,3.137-1.811a.542.542,0,0,0,.2-.738Z" transform="translate(-123.118 -317.012)"/><circle class="d" cx="0.81" cy="0.81" r="0.81" transform="translate(30.014 45.453)"/></g></svg>