<svg xmlns="http://www.w3.org/2000/svg" xmlns:xlink="http://www.w3.org/1999/xlink" width="52.086" height="53" viewBox="0 0 52.086 53"><defs><style>.a{fill:url(#a);}.b{fill:#fff;}.c{fill:url(#b);}.d{fill:#005027;}.e{fill:#ededed;}.f{fill:#add1bf;}.g,.h{fill:#ffa134;}.g{opacity:0.1;}.i{fill:#b96300;}.j{fill:#ffcf9a;}</style><linearGradient id="a" x1="1" y1="1" x2="0" y2="-0.122" gradientUnits="objectBoundingBox"><stop offset="0" stop-color="#87bd40"/><stop offset="1" stop-color="#b9f767"/></linearGradient><linearGradient id="b" x1="0.5" x2="0.5" y2="1" gradientUnits="objectBoundingBox"><stop offset="0" stop-color="#076535"/><stop offset="1" stop-color="#018b44"/></linearGradient></defs><path class="a" d="M36.3,52.965H47.517a4.569,4.569,0,0,1,4.569,4.569v38.38a4.569,4.569,0,0,1-4.569,4.569H4.569A4.568,4.568,0,0,1,0,95.913V57.534a4.569,4.569,0,0,1,4.569-4.569Zm0,0" transform="translate(0 -47.482)"/><path class="b" d="M68.205,88.277H78.257A1.833,1.833,0,0,1,80.085,90.1v29.4a1.828,1.828,0,0,1-.536,1.292L72.4,127.948a1.828,1.828,0,0,1-1.292.536H37.136a1.834,1.834,0,0,1-1.828-1.828V90.1a1.833,1.833,0,0,1,1.828-1.827Zm0,0" transform="translate(-31.654 -79.139)"/><path class="c" d="M164.381,4.569a4.569,4.569,0,0,1,9.138,0h3.655A1.833,1.833,0,0,1,179,6.4v3.655a1.832,1.832,0,0,1-1.827,1.828H160.726a1.832,1.832,0,0,1-1.827-1.828V6.4a1.833,1.833,0,0,1,1.827-1.828Zm0,0" transform="translate(-142.45)"/><path class="d" d="M213.087,72.449h-9.138a.914.914,0,0,1,0-1.828h9.138a.914.914,0,1,1,0,1.828Zm0,0" transform="translate(-182.018 -63.311)"/><g transform="translate(7.31 15.535)"><path class="e" d="M297.1,151.9H283.4a.914.914,0,0,1,0-1.827H297.1a.914.914,0,1,1,0,1.827Zm0,0" transform="translate(-260.553 -150.07)"/><path class="e" d="M297.1,187.207H283.4a.914.914,0,0,1,0-1.828H297.1a.914.914,0,0,1,0,1.828Zm0,0" transform="translate(-260.553 -181.724)"/><path class="e" d="M297.1,222.519H283.4a.914.914,0,0,1,0-1.827H297.1a.914.914,0,1,1,0,1.827Zm0,0" transform="translate(-260.553 -213.381)"/><path class="e" d="M297.1,257.828H283.4a.914.914,0,0,1,0-1.828H297.1a.914.914,0,0,1,0,1.828Zm0,0" transform="translate(-260.553 -245.035)"/><path class="e" d="M297.1,293.136H283.4a.914.914,0,0,1,0-1.828H297.1a.914.914,0,0,1,0,1.828Zm0,0" transform="translate(-260.553 -276.688)"/><path class="e" d="M107.173,354.929H71.535a.914.914,0,0,1,0-1.828h35.638a.914.914,0,0,1,0,1.828Zm0,0" transform="translate(-70.621 -332.085)"/><path class="e" d="M98.949,390.242H71.535a.914.914,0,0,1,0-1.828H98.949a.914.914,0,0,1,0,1.828Zm0,0" transform="translate(-70.621 -363.742)"/><path class="e" d="M98.949,425.55H71.535a.914.914,0,0,1,0-1.828H98.949a.914.914,0,0,1,0,1.828Zm0,0" transform="translate(-70.621 -395.395)"/></g><path class="f" d="M388.414,405.3v-7.146a.914.914,0,0,1,.914-.914h7.146Zm0,0" transform="translate(-348.207 -356.121)"/><path class="g" d="M104.725,167.122A8.224,8.224,0,1,1,96.5,158.9,8.224,8.224,0,0,1,104.725,167.122Zm0,0" transform="translate(-79.139 -142.45)"/><path class="h" d="M125.724,245.287a3.893,3.893,0,0,1-.567,2.019,8.206,8.206,0,0,1-9.832,0,3.892,3.892,0,0,1-.567-2.019,4.7,4.7,0,0,1,3.619-4.3H122.1A4.7,4.7,0,0,1,125.724,245.287Zm0,0" transform="translate(-102.879 -216.046)"/><path class="i" d="M159.812,242.913A.914.914,0,0,1,158.9,242v-2.742a.914.914,0,1,1,1.827,0V242A.914.914,0,0,1,159.812,242.913Zm0,0" transform="translate(-142.45 -213.671)"/><path class="j" d="M139.724,163.467c0-2.524-1.636-4.569-3.655-4.569s-3.655,2.045-3.655,4.569,1.636,4.569,3.655,4.569S139.724,165.99,139.724,163.467Zm0,0" transform="translate(-118.707 -142.45)"/></svg>