<svg xmlns="http://www.w3.org/2000/svg" xmlns:xlink="http://www.w3.org/1999/xlink" width="53" height="53" viewBox="0 0 53 53"><defs><style>.a{fill:url(#a);}.b{fill:#94ce47;}.c{fill:#fff;}.d{fill:#d9eafc;}.e{fill:#076535;}.f{fill:#004d26;}.g{fill:#87bd40;}.h{fill:#7bb233;}.i{fill:#ffa134;}.j{fill:#eb9127;}.k{fill:#014020;}.l{fill:#ffb157;}.m{fill:#004b24;}.n{fill:#ccfae2;}.o{fill:#c1f5da;}.p{fill:#076c38;}</style><linearGradient id="a" x1="1" y1="1" x2="0.019" gradientUnits="objectBoundingBox"><stop offset="0" stop-color="#87bd40"/><stop offset="1" stop-color="#b9f767"/></linearGradient></defs><circle class="a" cx="25.5" cy="25.5" r="25.5" transform="translate(2 2)"/><path class="b" d="M88.019,21.929a22.076,22.076,0,0,1-.249,3.311,21.57,21.57,0,0,1-.922,3.772,21.253,21.253,0,0,1-.946,2.327h0a21.768,21.768,0,0,1-1.156,2.118c-.082.132-.166.265-.251.4a21.854,21.854,0,0,1-1.73,2.316q-.661.772-1.39,1.481-.706.689-1.473,1.309-.149.122-.3.241a21.87,21.87,0,0,1-4.564,2.753,21.316,21.316,0,0,1-2.3.875,21.757,21.757,0,0,1-3.544.809h0A21.93,21.93,0,1,1,88.019,21.929Z" transform="translate(-35.967 8.178)"/><path class="c" d="M25.015,73.213a10.385,10.385,0,0,1,12.616-1.6V53.763H0V86.568A1.038,1.038,0,0,0,1.035,87.6H24.747A10.386,10.386,0,0,1,25.015,73.213Z" transform="translate(0 -48.198)"/><path class="d" d="M2.348,86.568V53.763H0V86.568A1.038,1.038,0,0,0,1.035,87.6H3.383A1.038,1.038,0,0,1,2.348,86.568Z" transform="translate(0 -48.198)"/><path class="e" d="M37.039,0H.592A.593.593,0,0,0,0,.592V5.859H37.631V.592A.593.593,0,0,0,37.039,0Z"/><path class="f" d="M2.939,0H.592A.593.593,0,0,0,0,.592V5.859H2.348V.592A.593.593,0,0,1,2.939,0Z"/><path class="g" d="M49.387,102.486a.519.519,0,0,1-.518.518H37.334a.519.519,0,0,1-.518-.518V94.214a.519.519,0,0,1,.518-.518H48.87a.519.519,0,0,1,.518.518v8.273Z" transform="translate(-33.005 -83.997)"/><path class="h" d="M39.164,102.486V94.214a.519.519,0,0,1,.518-.518H37.334a.519.519,0,0,0-.518.518v8.273a.519.519,0,0,0,.518.518h2.348A.519.519,0,0,1,39.164,102.486Z" transform="translate(-33.005 -83.997)"/><path class="i" d="M55.483,281.788H37.334a.519.519,0,0,0-.518.518v4.949a.519.519,0,0,0,.518.518H55.371A10.446,10.446,0,0,1,55.483,281.788Z" transform="translate(-33.005 -252.619)"/><path class="j" d="M39.164,287.255v-4.949a.519.519,0,0,1,.518-.518H37.334a.519.519,0,0,0-.518.518v4.949a.519.519,0,0,0,.518.518h2.348A.519.519,0,0,1,39.164,287.255Z" transform="translate(-33.005 -252.619)"/><path class="k" d="M391.341,389.207l-2.128,2.128,4.186,4.186a25.525,25.525,0,0,0,2.128-2.128Z" transform="translate(-348.923 -348.918)"/><path class="l" d="M184.608,281.788H180.85v5.984h3.645A10.446,10.446,0,0,1,184.608,281.788Z" transform="translate(-162.129 -252.619)"/><g transform="translate(3.035 8.923)"><path class="d" d="M204.131,87.749h-12.69a.776.776,0,0,1,0-1.553h12.69a.776.776,0,0,1,0,1.553Z" transform="translate(-173.963 -86.196)"/><path class="d" d="M204.131,117.722h-12.69a.776.776,0,0,1,0-1.553h12.69a.776.776,0,0,1,0,1.553Z" transform="translate(-173.963 -113.066)"/><path class="d" d="M204.131,147.695h-12.69a.776.776,0,0,1,0-1.553h12.69a.776.776,0,0,1,0,1.553Z" transform="translate(-173.963 -139.937)"/><path class="d" d="M204.131,177.668h-12.69a.776.776,0,0,1,0-1.553h12.69a.776.776,0,0,1,0,1.553Z" transform="translate(-173.963 -166.807)"/><path class="d" d="M57.28,213.148H30.092a.776.776,0,0,0,0,1.553H53.029A10.263,10.263,0,0,1,57.28,213.148Z" transform="translate(-29.316 -200.006)"/><path class="d" d="M51.1,243.662h-21a.776.776,0,0,0,0,1.553H49.883A10.354,10.354,0,0,1,51.1,243.662Z" transform="translate(-29.316 -227.362)"/></g><path class="g" d="M28.171,21.163a.776.776,0,1,1,.549-.227A.785.785,0,0,1,28.171,21.163Z" transform="translate(-24.559 -17.58)"/><path class="i" d="M52.766,21.163a.776.776,0,1,1,.55-.228A.779.779,0,0,1,52.766,21.163Z" transform="translate(-46.608 -17.58)"/><path class="c" d="M77.371,21.163a.776.776,0,1,1,.549-.227A.78.78,0,0,1,77.371,21.163Z" transform="translate(-68.666 -17.58)"/><path class="m" d="M0,.989.989,0,5.175,4.186q-.233.262-.473.518-.255.239-.516.472Z" transform="translate(41.428 40.289)"/><path class="e" d="M365.831,361.54l-1.763-1.763a10.433,10.433,0,0,1-4.252,4.259l1.76,1.76a.519.519,0,0,0,.732,0l3.524-3.524A.519.519,0,0,0,365.831,361.54Z" transform="translate(-322.569 -322.534)"/><path class="f" d="M362.782,393.219l-1.505-1.505a10.345,10.345,0,0,1-1.463.953l1.76,1.76a.519.519,0,0,0,.732,0l1.208-1.208A.519.519,0,0,1,362.782,393.219Z" transform="translate(-322.568 -351.165)"/><path class="e" d="M228.371,213.4a10.581,10.581,0,1,1-14.963,0A10.581,10.581,0,0,1,228.371,213.4Z" transform="translate(-188.538 -188.534)"/><path class="n" d="M253.519,253.515a7.419,7.419,0,1,1,0-10.491A7.419,7.419,0,0,1,253.519,253.515Z" transform="translate(-215.923 -215.919)"/><path class="o" d="M253.519,266.107a7.462,7.462,0,0,0,.719-.834A7.419,7.419,0,0,1,243.862,254.9a7.419,7.419,0,1,0,9.658,11.21Z" transform="translate(-215.923 -228.511)"/><path class="p" d="M140.953,0H115.912V5.859h25.632V.592A.593.593,0,0,0,140.953,0Z" transform="translate(-103.913)"/><g transform="translate(32.383 26.141)"><circle class="c" cx="1.242" cy="1.242" r="1.242"/><circle class="c" cx="0.88" cy="0.88" r="0.88" transform="translate(2.972 1.653)"/></g></svg>