<svg xmlns="http://www.w3.org/2000/svg" xmlns:xlink="http://www.w3.org/1999/xlink" width="119.543" height="131.544" viewBox="0 0 119.543 131.544"><defs><style>.a{fill:url(#a);}.b{fill:rgba(0,0,0,0.2);}.c{fill:url(#b);}.d{opacity:0.2;fill:url(#c);}.e{fill:none;stroke:#fff;}</style><linearGradient id="a" x1="0.906" y1="1.02" x2="-0.017" y2="0.064" gradientUnits="objectBoundingBox"><stop offset="0" stop-color="#076535"/><stop offset="1" stop-color="#018b44"/></linearGradient><linearGradient id="b" x1="0.694" y1="0.928" x2="-0.037" y2="0.071" gradientUnits="objectBoundingBox"><stop offset="0" stop-color="#87bd40"/><stop offset="1" stop-color="#a7e555"/></linearGradient><linearGradient id="c" y1="0.747" x2="1.197" y2="0.947" gradientUnits="objectBoundingBox"><stop offset="0" stop-color="#fff"/><stop offset="1" stop-color="#fff" stop-opacity="0"/></linearGradient></defs><g transform="translate(-21.174 5.773)"><path class="a" d="M26.946,14.034v27.66A83.564,83.564,0,0,0,62.41,109.956l10.723,7.567a13.563,13.563,0,0,0,15.626,0l10.723-7.567a83.564,83.564,0,0,0,35.464-68.262V14.034a6.079,6.079,0,0,0-5.092-5.985L82.452.125a9.14,9.14,0,0,0-3.013,0l-47.4,7.924A6.08,6.08,0,0,0,26.946,14.034Z"/><path class="b" d="M57.674,46.494v23.95a72.353,72.353,0,0,0,30.707,59.1l9.285,6.552a11.743,11.743,0,0,0,13.529,0l9.284-6.552a72.353,72.353,0,0,0,30.706-59.1V46.494a5.264,5.264,0,0,0-4.409-5.182l-41.042-6.861a7.91,7.91,0,0,0-2.609,0L62.083,41.312A5.264,5.264,0,0,0,57.674,46.494Z" transform="translate(-23.484 -26.294)"/><path class="c" d="M141.171,101.45a14.808,14.808,0,0,1,14.851-14.764,15.021,15.021,0,0,1,2.4.2c.011-.5.019-1,.019-1.5V63.095a4.9,4.9,0,0,0-4.1-4.823l-24.588-4.11a14.859,14.859,0,0,1-29.519-.022L75.514,58.272a4.9,4.9,0,0,0-4.1,4.823V85.386c0,.5.008,1,.019,1.5a15.016,15.016,0,0,1,2.4-.2,14.753,14.753,0,0,1,4.693,28.772A67.543,67.543,0,0,0,99.99,140.4l8.642,6.1a10.93,10.93,0,0,0,12.592,0l8.641-6.1a67.541,67.541,0,0,0,21.465-24.939A14.776,14.776,0,0,1,141.171,101.45Z" transform="translate(-33.982 -41.45)"/><path class="d" d="M110.043,65.632l11.244-1.88,62.774,62.407a67.449,67.449,0,0,1-5.712,8.415L109.217,65.845A4.955,4.955,0,0,1,110.043,65.632Z" transform="translate(-68.598 -48.81)"/><path class="d" d="M145.149,87.134a4.846,4.846,0,0,1,.273-1.6L214.8,154.51q-1.4,1.549-2.9,3.016l-66.75-66.36Z" transform="translate(-107.807 -65.489)"/><path class="e" d="M26.946,14.034v27.66A83.564,83.564,0,0,0,62.41,109.956l10.723,7.567a13.563,13.563,0,0,0,15.626,0l10.723-7.567a83.564,83.564,0,0,0,35.464-68.262V14.034a6.079,6.079,0,0,0-5.092-5.985L82.452.125a9.14,9.14,0,0,0-3.013,0l-47.4,7.924A6.08,6.08,0,0,0,26.946,14.034Z"/></g></svg>