<svg xmlns="http://www.w3.org/2000/svg" width="53" height="52.971" viewBox="0 0 53 52.971"><defs><style>.a{fill:#87bd40;}.b{fill:#076535;}.c{fill:#ffa134;}.d{fill:rgba(80,22,0,0.1);}.e{fill:#fff;}.f{fill:#d9eafc;}.g{fill:#f09225;}.h{fill:#ffb662;}.i{fill:#6ca224;}.j{fill:#98d050;}</style></defs><circle class="a" cx="26.443" cy="26.443" r="26.443" transform="translate(0 0.085)"/><circle class="b" cx="22.543" cy="22.543" r="22.543" transform="translate(3.901 3.985)"/><path class="a" d="M106.964,125.062a17.146,17.146,0,1,1,17.146-17.146A17.165,17.165,0,0,1,106.964,125.062Z" transform="translate(-80.52 -81.389)"/><path class="b" d="M153.7,166.4a11.749,11.749,0,1,1,11.749-11.749A11.762,11.762,0,0,1,153.7,166.4Z" transform="translate(-127.257 -128.125)"/><path class="c" d="M200.437,207.741a6.353,6.353,0,1,1,6.352-6.353A6.36,6.36,0,0,1,200.437,207.741Z" transform="translate(-173.993 -174.861)"/><ellipse class="d" cx="2.5" cy="3.5" rx="2.5" ry="3.5" transform="translate(24 24.247)"/><path class="e" d="M264.226,48.544,243.459,69.311a1.46,1.46,0,0,1-2.065,0h0a1.46,1.46,0,0,1,0-2.065L262.16,46.479Z" transform="translate(-216.022 -41.682)"/><path class="f" d="M267.93,57.488,247.163,78.254a1.46,1.46,0,0,1-2.065,0h0l21.8-21.8Z" transform="translate(-219.726 -50.625)"/><path class="c" d="M350.457,8.135,358.452.14l1.865,4.8-7.995,7.995Z" transform="translate(-314.179 -0.14)"/><g transform="translate(38.077 2.065)"><path class="g" d="M367.834,49.609l1.2-1.2,1.865,4.8-1.2,1.2Z" transform="translate(-367.834 -45.479)"/><path class="g" d="M396.152,21.29l1.2-1.2,1.865,4.8-1.2,1.2Z" transform="translate(-393.221 -20.091)"/><path class="c" d="M396.424,66.431l-7.995,7.995,4.8,1.865,7.995-7.995Z" transform="translate(-386.297 -61.634)"/></g><g transform="translate(42.007 8.927)"><path class="h" d="M435.324,86.382l-1.2,1.2,4.8,1.865,1.2-1.2Z" transform="translate(-431.194 -86.382)"/><path class="h" d="M407.005,114.7l-1.2,1.2,4.8,1.865,1.2-1.2Z" transform="translate(-405.806 -111.77)"/></g><path class="i" d="M10.792,47.76a26.56,26.56,0,0,1-7.848-9.178A26.33,26.33,0,0,1,0,26.443a26.638,26.638,0,0,1,.537-5.329,26.3,26.3,0,0,1,3.979-9.455A26.521,26.521,0,0,1,16.15,2.078,26.312,26.312,0,0,1,21.114.537a26.624,26.624,0,0,1,13.954.9A26.378,26.378,0,0,1,42.5,5.433,26.327,26.327,0,0,0,26.857.311a26.637,26.637,0,0,0-5.329.537,26.3,26.3,0,0,0-9.455,3.979A26.52,26.52,0,0,0,2.492,16.461,26.309,26.309,0,0,0,.951,21.425a26.679,26.679,0,0,0,.2,11.546A26.36,26.36,0,0,0,6.514,43.649a26.637,26.637,0,0,0,4.278,4.111Z" transform="translate(0 0.085)"/><path class="j" d="M18.905,45.349a26.635,26.635,0,0,1-5.4-.553,26.3,26.3,0,0,1-9.564-4.088A26.635,26.635,0,0,1,0,37.394a26.482,26.482,0,0,0,8.335,5.519,26.314,26.314,0,0,0,4.9,1.5A26.7,26.7,0,0,0,23.82,44.4a26.3,26.3,0,0,0,9.455-3.979,26.52,26.52,0,0,0,9.581-11.634A26.309,26.309,0,0,0,44.4,23.82a26.7,26.7,0,0,0,.015-10.584A26.3,26.3,0,0,0,40.54,3.889,26.633,26.633,0,0,0,37.394,0a26.492,26.492,0,0,1,5.818,8.475A26.307,26.307,0,0,1,44.8,13.5a26.7,26.7,0,0,1,.015,10.733,26.3,26.3,0,0,1-3.979,9.455A26.521,26.521,0,0,1,29.2,43.271a26.312,26.312,0,0,1-4.964,1.541A26.639,26.639,0,0,1,18.905,45.349Z" transform="translate(7.538 7.623)"/></svg>